<svg width="371" height="356" viewBox="0 0 371 356" fill="none" xmlns="http://www.w3.org/2000/svg">
<g clip-path="url(#clip0_250_168)">
<path d="M185.5 356C287.949 356 371 276.307 371 178C371 79.6938 287.949 0 185.5 0C83.0512 0 0 79.6938 0 178C0 276.307 83.0512 356 185.5 356Z" fill="#50B748"/>
<path d="M125.599 44.5C117.097 44.5 110.141 51.175 110.141 59.3333V296.667C110.141 304.825 117.097 311.5 125.599 311.5H241.536C250.039 311.5 256.995 304.825 256.995 296.667V155.691C257.501 155.699 258.003 155.61 258.473 155.429C258.942 155.248 259.369 154.979 259.729 154.638C260.089 154.297 260.375 153.89 260.569 153.442C260.763 152.993 260.861 152.512 260.859 152.027V144.67C260.867 144.179 260.772 143.691 260.581 143.236C260.39 142.78 260.106 142.366 259.746 142.016C259.387 141.667 258.958 141.39 258.486 141.201C258.013 141.012 257.507 140.916 256.995 140.917V140.828C257.501 140.836 258.003 140.747 258.473 140.566C258.942 140.385 259.369 140.116 259.729 139.775C260.089 139.434 260.375 139.027 260.569 138.579C260.763 138.13 260.861 137.649 260.859 137.164V129.806C260.866 129.316 260.77 128.829 260.579 128.374C260.387 127.919 260.103 127.505 259.744 127.155C259.385 126.806 258.956 126.529 258.484 126.34C258.013 126.151 257.506 126.054 256.995 126.054V115.93C258.013 115.903 258.979 115.492 259.685 114.787C260.391 114.083 260.779 113.14 260.767 112.162V107.601C260.783 106.622 260.396 105.677 259.69 104.972C258.983 104.266 258.014 103.857 256.995 103.833V59.3333C256.995 51.175 250.039 44.5 241.536 44.5H125.599ZM125.599 51.9167H241.536C245.888 51.9167 249.266 55.1577 249.266 59.3333V89H117.87V59.3333C117.87 55.1577 121.247 51.9167 125.599 51.9167ZM168.109 66.75C167.084 66.75 166.101 67.1407 165.377 67.8361C164.652 68.5316 164.245 69.4748 164.245 70.4583C164.245 71.4418 164.652 72.3851 165.377 73.0805C166.101 73.776 167.084 74.1667 168.109 74.1667C169.134 74.1667 170.117 73.776 170.842 73.0805C171.567 72.3851 171.974 71.4418 171.974 70.4583C171.974 69.4748 171.567 68.5316 170.842 67.8361C170.117 67.1407 169.134 66.75 168.109 66.75ZM183.49 66.75C178.265 66.6758 178.265 74.2408 183.49 74.1667H199.088C204.313 74.2408 204.313 66.6758 199.088 66.75H183.49ZM117.87 96.4167H249.266V259.583H117.87V96.4167ZM183.568 126.083C153.733 126.083 129.464 149.372 129.464 178C129.464 206.628 153.733 229.917 183.568 229.917C213.402 229.917 237.672 206.628 237.672 178C237.672 149.372 213.402 126.083 183.568 126.083ZM183.568 133.5C209.229 133.5 229.943 153.377 229.943 178C229.943 202.623 209.229 222.5 183.568 222.5C157.907 222.5 137.193 202.623 137.193 178C137.193 153.377 157.907 133.5 183.568 133.5ZM207.884 156.833L171.974 191.283L159.259 179.083L153.779 184.326L171.974 201.785L213.364 162.076L207.884 156.833ZM117.87 267H249.266V296.667C249.266 300.842 245.88 304.083 241.536 304.083H125.599C121.247 304.083 117.87 300.842 117.87 296.667V267ZM184.031 278.125C179.533 278.125 175.792 281.7 175.792 286.016C175.792 290.34 179.533 293.93 184.031 293.93C188.538 293.93 192.278 290.34 192.278 286.016C192.278 281.7 188.538 278.125 184.031 278.125Z" fill="white"/>
</g>
<defs>
<clipPath id="clip0_250_168">
<rect width="371" height="356" fill="white"/>
</clipPath>
</defs>
</svg>
